# xmcd
#
# Track frame offsets:
#  150
#  12437
#  28838
#  42859
#  62166
#  75167
#  82914
#  95736
#  110083
#  122498
#  137253
#  148569
#  163361
#  181550
#  196944
#  203143
#
# Disc length: 2952 seconds
#
# Revision: 0
# Processed by: cddbd v1.4PL0 Copyright (c) Steve Scherf et al.
# Submitted via: AltoMP3_Maker 3.0
#
DISCID=cd0b8610
DTITLE=Various Artist - Scottish Accordion Favourites
DYEAR=1900
DGENRE=
TTITLE0=Bluebird polka
TTITLE1=Soldier boy
TTITLE2=Strathspey-Reel
TTITLE3=Andy stewart medley
TTITLE4=The old rustic bridge
TTITLE5=Plaza polka
TTITLE6=Flowers of Edinburgh
TTITLE7=Strathspeys
TTITLE8=Hornpipe Jig-Reel
TTITLE9=Mull of Kintyre
TTITLE10=Polka des as
TTITLE11=Marching with burns
TTITLE12=March Jig-Reel
TTITLE13=Annie's song
TTITLE14=High level
TTITLE15=Slow air-March-Strathspey Reel
EXTD=
EXTT0=
EXTT1=
EXTT2=
EXTT3=
EXTT4=
EXTT5=
EXTT6=
EXTT7=
EXTT8=
EXTT9=
EXTT10=
EXTT11=
EXTT12=
EXTT13=
EXTT14=
EXTT15=
PLAYORDER=
